<svg width="271" height="284" viewBox="0 0 271 284" fill="none" xmlns="http://www.w3.org/2000/svg">
<path fill-rule="evenodd" clip-rule="evenodd" d="M90 276L236 31L240.295 33.5596L94.2952 278.56L90 276Z" fill="black" stroke="black" stroke-width="5"/>
<path d="M251.082 277.618L251.084 277.617C259.376 274.131 265.548 270.013 269.555 265.243L269.753 265.007L269.631 264.724L266.115 256.568L265.882 256.025L265.385 256.345C261.195 259.046 257.011 261.137 252.832 262.623C248.684 264.098 243.495 264.844 237.25 264.844C228.283 264.844 220.723 261.798 214.538 255.706C208.317 249.578 203.669 242.006 200.598 232.98C197.52 223.931 195.984 215.173 195.984 206.703C195.984 198.309 197.104 191.01 199.329 184.795C201.65 178.483 204.84 173.643 208.882 170.244C213.01 166.851 217.771 165.156 223.188 165.156C228.466 165.156 232.727 167.284 236.009 171.57L236.009 171.57L236.017 171.579C239.449 175.846 242.568 181.288 245.368 187.913L245.506 188.241L245.861 188.218C251.644 187.838 256.167 186.318 259.37 183.6C262.581 180.876 264.188 177.312 264.188 172.953C264.188 168.991 262.881 165.324 260.289 161.964C257.78 158.588 253.942 155.916 248.822 153.925C243.684 151.927 237.337 150.938 229.797 150.938C219.386 150.938 209.546 153.825 200.283 159.591C191.108 165.266 183.691 173.35 178.029 183.824C172.359 194.22 169.531 206.163 169.531 219.641C169.531 230.961 171.843 241.442 176.471 251.076C181.102 260.715 187.674 268.425 196.188 274.195L196.191 274.197C204.718 279.882 214.519 282.719 225.578 282.719C234.363 282.719 242.866 281.018 251.082 277.618Z" fill="black" stroke="black"/>
<path d="M68.625 183.5H69.0556L69.1195 183.074L70.807 171.824L70.8759 171.365L70.4229 171.262L48.4531 166.288V5.10938V4.90227L48.3067 4.75582L44.7911 1.2402L44.6278 1.07696L44.3977 1.09534L3.8977 4.32971L3.50505 4.36107L3.44362 4.75014L1.75612 15.4376L1.69019 15.8552L2.09099 15.9897L23.9688 23.3284V166.294L2.8356 171.405L2.50483 171.485L2.4579 171.822L0.911028 182.931L0.831806 183.5H1.40625H68.625ZM65.6888 142.934L65.6918 142.938C74.2258 154.473 81.0799 163.159 86.251 168.988C91.4303 174.827 96.4865 179.179 101.422 182.027L101.422 182.027L101.432 182.032C106.48 184.794 112.095 186.172 118.266 186.172C122.826 186.172 128.451 185.27 135.129 183.483L135.448 183.398L135.495 183.071L137.042 172.243L137.112 171.751L136.621 171.677L130.996 170.834L130.989 170.833L130.981 170.832C126.363 170.277 122.265 168.848 118.678 166.549C115.158 164.233 111.77 161.264 108.515 157.637C105.339 153.994 100.943 148.476 95.3219 141.075C90.7336 134.895 87.4936 130.668 85.6079 128.405L74.7495 114.522L107.725 74.1729L128.526 68.3094L128.824 68.2253L128.882 67.9211L130.851 57.5148L130.963 56.9219H130.359H70.4531H70.0146L69.9574 57.3566L68.5511 68.0442L68.4957 68.4657L68.9029 68.5882L86.8986 74.0004L50.9371 119.126L50.8281 119.263V119.438V122.25V122.412L50.9232 122.543L65.6888 142.934Z" fill="black" stroke="black"/>
</svg>
